<svg width="512" height="512" viewBox="0 0 512 512" fill="none" xmlns="http://www.w3.org/2000/svg">
<circle cx="256" cy="256" r="256" fill="black"/>
<path d="M209.614 329V183.545H258.761C270.125 183.545 279.453 185.487 286.744 189.369C294.036 193.205 299.434 198.484 302.938 205.207C306.441 211.931 308.193 219.578 308.193 228.148C308.193 236.718 306.441 244.317 302.938 250.946C299.434 257.575 294.06 262.783 286.815 266.571C279.571 270.312 270.314 272.182 259.045 272.182H219.273V256.273H258.477C266.242 256.273 272.492 255.136 277.227 252.864C282.009 250.591 285.466 247.371 287.597 243.205C289.775 238.991 290.864 233.972 290.864 228.148C290.864 222.324 289.775 217.234 287.597 212.878C285.419 208.522 281.938 205.16 277.156 202.793C272.374 200.378 266.053 199.17 258.193 199.17H227.227V329H209.614ZM278.08 263.659L313.875 329H293.42L258.193 263.659H278.08Z" fill="white"/>
</svg>
